:SAMPLES-PER-SECOND 30
:FULLY-SPECIFIED
:DEGREES
1007
root  42.1357 38.089 -3.48808 -129.318 -86.7616 125.716
RightUpLeg  14.5055 -9.91371 -4.97041
RightLeg  14.1415 2.88996 0.822226
RightFoot  -20.5439 -0.0882826 0.629664
RightToes  9.54606e-009 0 -3.6325e-017
Spine  1.68821 2.42755 6.51311
Spine1  9.09077 4.50772 -7.08764
HEad  -3.9138 -33.0561 -7.28069
LeftShoulder1  -0.574612 5.01012 -31.9962
LeftArm  -3.34747 16.2768 -37.375
LeftForeArm  29.2096 -10.6215 -7.6515
LeftHand  -0.101193 8.31842 -2.07381
RightShoulder  -0.865032 -5.94149 28.8935
RightArm  17.08 2.11675 49.0275
RightForeArm  18.63 8.07468 8.31643
RightHand  -0.0904161 4.51162 -1.35683
LeftUpLeg  -18.251 2.82082 -3.31769
LeftLeg  7.50306 7.57965 -0.185216
LeftFoot  4.76554 -0.0332167 -0.333843
LeftToes  -8.26734e-010 9.74065e-011 1.64617e-011
1008
root  40.9081 37.969 -3.3848 -136.703 -85.3716 132.635
RightUpLeg  16.2592 -8.68287 -6.34501
RightLeg  15.3265 3.45867 0.607911
RightFoot  -21.1036 0.108328 2.92802
RightToes  9.54606e-009 0 -3.6325e-017
Spine  1.57492 2.80948 5.29417
Spine1  8.83996 5.0886 -7.91253
HEad  -2.83582 -32.437 -7.32327
LeftShoulder1  -0.650021 5.18526 -32.5045
LeftArm  -3.22322 15.8134 -36.2544
LeftForeArm  28.5966 -10.7659 -7.61975
LeftHand  -0.0810547 8.2374 -1.35015
RightShoulder  -0.9072 -6.01532 29.5253
RightArm  16.6392 0.175083 48.5482
RightForeArm  19.7542 7.26149 8.33335
RightHand  -0.112972 3.71745 -1.67877
LeftUpLeg  -18.1845 4.17506 -4.77541
LeftLeg  10.9957 6.41249 0.348591
LeftFoot  8.73789 -1.09599 6.05362
LeftToes  -8.26734e-010 9.74065e-011 1.64617e-011
1009
root  39.6585 37.8664 -3.26575 -129.653 -84.5033 124.89
RightUpLeg  17.4714 -7.04751 -7.89624
RightLeg  18.3423 3.09909 0.777637
RightFoot  -21.0444 0.414115 6.55309
RightToes  9.54606e-009 0 -3.6325e-017
Spine  1.66311 2.56424 3.3802
Spine1  8.49743 4.85998 -8.17277
HEad  -1.91986 -31.6625 -7.51126
LeftShoulder1  -0.745547 5.42042 -32.7442
LeftArm  -3.73365 14.4174 -35.4569
LeftForeArm  28.2227 -9.59549 -7.90935
LeftHand  -0.0552264 8.47405 -0.423764
RightShoulder  -1.00739 -6.24278 30.2292
RightArm  15.6956 -1.70383 48.2347
RightForeArm  20.8623 6.92201 8.05274
RightHand  -0.14691 4.89725 -1.92689
LeftUpLeg  -18.2021 5.06073 -6.85357
LeftLeg  16.351 5.4071 1.92296
LeftFoot  5.43798 -1.09091 7.1518
LeftToes  -8.26734e-010 9.74065e-011 1.64617e-011
1010
root  38.534 37.8257 -3.13143 -124.01 -84.0786 118.682
RightUpLeg  17.0278 -5.86887 -9.23125
RightLeg  23.7182 3.38075 1.43555
RightFoot  -19.4467 0.70472 11.936
RightToes  9.54606e-009 0 -3.6325e-017
Spine  2.26002 2.26781 2.04381
Spine1  7.7865 4.52939 -8.87745
HEad  -0.98291 -31.0979 -8.14374
LeftShoulder1  -0.719231 5.33958 -33.0164
LeftArm  -4.12242 12.3719 -34.9769
LeftForeArm  28.114 -7.91884 -8.27036
LeftHand  -0.0484804 9.96038 0.172412
RightShoulder  -1.005 -6.25259 30.0031
RightArm  14.145 -4.62661 48.3725
RightForeArm  21.3363 7.95431 7.27926
RightHand  -0.00958836 3.98933 -0.402577
LeftUpLeg  -17.2825 4.77765 -7.93586
LeftLeg  19.4002 5.78381 2.61771
LeftFoot  2.70264 -0.965701 7.68859
LeftToes  -8.26734e-010 9.74065e-011 1.64617e-011
1011
root  37.5717 37.8581 -2.9803 -129.97 -82.892 124.334
RightUpLeg  13.7063 -3.86433 -10.5324
RightLeg  32.2728 3.95302 2.44565
RightFoot  -15.0959 0.445607 17.1799
RightToes  9.54606e-009 0 -3.6325e-017
Spine  3.08316 2.45117 1.38408
Spine1  7.34873 4.74692 -10.44
HEad  -0.777039 -30.2661 -9.34593
LeftShoulder1  -0.70862 5.32667 -32.7169
LeftArm  -5.04826 9.86298 -35.7519
LeftForeArm  29.9966 -6.22872 -8.20246
LeftHand  -0.0782201 9.60722 -0.676108
RightShoulder  -0.944122 -6.11905 29.5339
RightArm  14.1918 -6.51079 48.6152
RightForeArm  18.9751 8.92029 7.11649
RightHand  -0.057822 4.13371 -0.975424
LeftUpLeg  -16.032 5.30162 -8.62396
LeftLeg  20.9157 6.5452 3.08561
LeftFoot  0.271182 -0.795121 7.78088
LeftToes  -8.26734e-010 9.74065e-011 1.64617e-011
1012
root  36.6239 37.9572 -2.8329 -138.147 -81.62 132.321
RightUpLeg  8.34681 -0.730063 -11.0204
RightLeg  42.4954 3.86744 3.5075
RightFoot  -6.55421 -0.695462 17.5485
RightToes  9.54606e-009 0 -3.6325e-017
Spine  3.98275 2.51651 0.666461
Spine1  6.41474 4.69881 -11.0289
HEad  -0.635803 -28.3227 -9.80804
LeftShoulder1  -0.722495 5.36362 -32.6883
LeftArm  -4.88767 7.75577 -36.4758
LeftForeArm  31.1791 -5.75325 -8.36729
LeftHand  -0.0962094 9.69263 -1.11927
RightShoulder  -0.872851 -5.93936 29.2312
RightArm  16.0194 -6.88772 48.548
RightForeArm  18.011 10.0915 7.34147
RightHand  -0.113023 4.16701 -1.64822
LeftUpLeg  -14.4138 6.30337 -8.93369
LeftLeg  21.4454 7.29124 3.42603
LeftFoot  -1.75354 -0.629965 7.63352
LeftToes  -8.26734e-010 9.74065e-011 1.64617e-011
